<svg xmlns="http://www.w3.org/2000/svg" viewBox="0 0 348 348" fill="none"><path d="M5.079 5.776h336.913v337.67H5.08z" stroke-width="2" stroke="#000"/><path d="M282.734 40.554c0-8.376 6.966-15.165 15.56-15.165 4.126 0 8.084 1.597 11.001 4.441 2.918 2.844 4.558 6.702 4.558 10.724 0 8.376-6.966 15.165-15.56 15.165-8.593 0-15.559-6.79-15.559-15.165z" stroke-width="2" stroke="#000"/><path stroke="#000" d="M18.247 20.076h198.631v248.68H18.247z"/><path stroke="#000" d="M24.503 25.29h186.119V262.5H24.503zM235.125 275.534h99.055v62.04h-99.055z"/><path d="M34.409 66.476c14.076-15.12 35.45-16.162 35.45-16.162l101.662-.521s9.384 1.042 19.811 9.384c10.112 8.09 10.948 9.905 10.948 9.905l-4.17 3.65c.423-1.27-10.283-10.137-21.897-16.162-6.626-3.437-103.225-1.043-103.225-1.043s-9.906-1.042-21.897 5.214c-9.75 5.087-15.118 11.47-15.118 11.47zM34.409 94.476c14.076-15.12 35.45-16.162 35.45-16.162l101.662-.521s9.384 1.042 19.811 9.384c10.112 8.09 10.948 9.905 10.948 9.905l-4.17 3.65c.423-1.27-10.283-10.137-21.897-16.162-6.626-3.437-103.225-1.043-103.225-1.043s-9.906-1.042-21.897 5.214c-9.75 5.087-15.118 11.47-15.118 11.47z" fill="#000" stroke="#000"/><path d="M34.409 150.8c14.076-15.119 35.45-16.162 35.45-16.162l101.662-.521s9.385 1.043 19.811 9.384c10.113 8.09 10.949 9.906 10.949 9.906l-4.171 3.649c.423-1.27-10.283-10.137-21.896-16.162-6.627-3.437-103.226-1.042-103.226-1.042s-9.906-1.043-21.896 5.213c-9.75 5.087-15.12 11.47-15.12 11.47z" fill="#003" stroke="#000"/><path d="M34.409 122.34c14.076-15.119 35.45-16.162 35.45-16.162l101.662-.521s9.385 1.043 19.811 9.384c10.113 8.09 10.949 9.906 10.949 9.906l-4.171 3.649c.423-1.27-10.283-10.137-21.896-16.162-6.627-3.437-103.226-1.042-103.226-1.042s-9.906-1.043-21.896 5.213c-9.75 5.087-15.12 11.47-15.12 11.47zM34.409 206.483c14.076-15.119 35.45-16.162 35.45-16.162l101.662-.521s9.385 1.043 19.811 9.384c10.113 8.09 10.949 9.906 10.949 9.906l-4.171 3.649c.423-1.27-10.283-10.137-21.896-16.162-6.627-3.437-103.226-1.042-103.226-1.042s-9.906-1.043-21.896 5.213c-9.75 5.087-15.12 11.47-15.12 11.47zM34.409 178.334c14.076-15.119 35.45-16.162 35.45-16.162l101.662-.521s9.385 1.043 19.811 9.384c10.113 8.09 10.949 9.906 10.949 9.906l-4.171 3.649c.423-1.27-10.283-10.137-21.896-16.162-6.627-3.437-103.226-1.042-103.226-1.042s-9.906-1.043-21.896 5.213c-9.75 5.087-15.12 11.47-15.12 11.47zM34.409 234.309c14.076-15.119 35.45-16.162 35.45-16.162l101.662-.521s9.385 1.043 19.811 9.384c10.113 8.09 10.949 9.906 10.949 9.906l-4.171 3.649c.423-1.27-10.283-10.137-21.896-16.162-6.627-3.437-103.226-1.042-103.226-1.042s-9.906-1.043-21.896 5.213c-9.75 5.087-15.12 11.47-15.12 11.47z" fill="#000" stroke="#000"/><g aria-label="5" style="line-height:1.25" font-weight="400" font-size="52.485" font-family="sans-serif" letter-spacing="0" word-spacing="0" fill="#000" stroke-width="1.312"><path d="M281.289 305.811q0 10.53-3.152 15.466-3.126 4.91-9.73 4.91-6.703 0-9.804-4.988-3.077-4.99-3.077-15.335 0-10.425 3.127-15.387 3.126-4.99 9.754-4.99 6.704 0 9.78 5.068 3.102 5.042 3.102 15.256zm-6.579 11.922q.876-2.127 1.176-4.99.325-2.888.325-6.932 0-3.99-.325-6.932-.3-2.94-1.2-4.989-.876-2.022-2.402-3.046-1.5-1.024-3.877-1.024-2.35 0-3.901 1.024-1.526 1.024-2.427 3.099-.85 1.943-1.175 5.068-.3 3.124-.3 6.853 0 4.096.275 6.853.275 2.757 1.175 4.937.826 2.048 2.327 3.125 1.525 1.076 4.026 1.076 2.352 0 3.902-1.024 1.551-1.024 2.401-3.098zM313.654 312.954q0 2.73-.95 5.225-.951 2.495-2.602 4.201-1.8 1.838-4.302 2.836-2.476.972-5.753.972-3.051 0-5.877-.683-2.827-.656-4.778-1.602v-5.54h.35q2.052 1.365 4.803 2.337 2.751.945 5.402.945 1.776 0 3.427-.525 1.676-.525 2.976-1.838 1.101-1.13 1.651-2.705.575-1.575.575-3.65 0-2.021-.675-3.413-.65-1.392-1.826-2.232-1.3-.998-3.176-1.392-1.851-.42-4.152-.42-2.201 0-4.252.315-2.026.315-3.502.63v-20.14h22.41v4.595H295.82v10.399q1.076-.105 2.201-.158 1.126-.052 1.951-.052 3.027 0 5.303.551 2.276.525 4.177 1.89 2 1.445 3.101 3.73 1.1 2.284 1.1 5.724z"/></g></svg>